<?xml version="1.0" standalone="no"?>
<!DOCTYPE svg PUBLIC "-//W3C//DTD SVG 20010904//EN"
 "http://www.w3.org/TR/2001/REC-SVG-20010904/DTD/svg10.dtd">
<svg version="1.0" xmlns="http://www.w3.org/2000/svg"
 width="512.000000pt" height="512.000000pt" viewBox="0 0 512.000000 512.000000"
 preserveAspectRatio="xMidYMid meet">
<metadata>
Created by potrace 1.16, written by Peter Selinger 2001-2019
</metadata>
<g transform="translate(0.000000,512.000000) scale(0.100000,-0.100000)"
fill="#ffffff" stroke="none">
<path d="M1109 5090 c-75 -39 -100 -71 -138 -180 -84 -242 -248 -550 -410
-773 -217 -298 -352 -587 -440 -942 -133 -533 -123 -836 40 -1272 47 -126 167
-384 190 -408 6 -5 -21 55 -60 135 -116 242 -152 359 -186 615 -20 154 -21
457 0 629 59 500 252 956 557 1321 88 105 175 185 380 348 70 55 126 102 124
104 -6 6 -96 -50 -185 -115 -47 -34 -86 -60 -89 -58 -2 3 27 76 66 163 38 87
77 183 87 213 32 98 41 109 118 145 40 19 84 36 99 40 24 6 26 4 33 -34 4 -22
4 -44 1 -50 -10 -16 6 -71 21 -71 8 0 69 24 137 54 67 30 187 76 267 101 79
26 155 51 169 55 18 6 1 9 -55 9 -120 1 -336 -58 -420 -114 -20 -14 -40 -25
-45 -25 -6 0 -10 32 -10 70 l0 70 -97 0 c-88 -1 -104 -4 -154 -30z"/>
<path d="M3015 5086 c187 -39 344 -89 499 -157 103 -45 112 -47 124 -31 9 12
12 33 8 67 -3 28 -6 74 -6 103 0 28 -4 52 -10 52 -6 0 -10 -31 -10 -74 0 -41
-4 -77 -9 -81 -6 -3 -76 17 -158 44 -245 83 -332 102 -473 107 l-125 4 160
-34z"/>
<path d="M3695 5099 c-4 -11 -4 -73 0 -137 3 -67 2 -123 -3 -131 -8 -11 -22
-6 -74 23 -65 36 -98 45 -98 26 0 -16 -26 -12 -129 20 -143 44 -331 87 -466
107 -165 25 -559 24 -730 -1 -317 -46 -593 -135 -835 -271 -78 -44 -159 -105
-138 -105 2 0 40 20 84 46 264 151 536 247 829 291 185 27 601 25 790 -5 229
-36 529 -116 723 -193 77 -31 130 -37 150 -17 8 8 12 59 12 164 0 93 4 155 10
159 16 10 214 -89 236 -118 11 -14 40 -90 63 -169 56 -189 113 -333 160 -405
21 -32 89 -116 151 -188 61 -71 125 -146 141 -166 l28 -36 -79 -37 c-43 -21
-83 -43 -89 -49 -7 -9 5 -39 40 -102 27 -49 74 -136 105 -194 30 -58 69 -122
85 -141 l31 -35 -6 50 c-3 28 -8 59 -11 70 -5 16 5 26 55 54 34 18 63 31 65
29 2 -2 11 -38 20 -79 8 -42 26 -109 40 -149 29 -84 30 -95 9 -60 -17 29 -17
27 20 -102 67 -232 101 -495 99 -763 -1 -265 -28 -456 -110 -778 -29 -118 -33
-141 -21 -156 7 -10 28 -39 47 -64 39 -53 46 -56 61 -27 12 22 -5 65 -34 89
-22 19 -20 40 14 150 69 224 103 409 121 653 25 349 -32 759 -150 1073 -52
140 -73 243 -54 272 11 17 9 29 -16 91 -35 85 -112 206 -140 221 -11 6 -26 8
-34 5 -8 -3 -21 5 -30 20 -9 14 -60 75 -112 137 -53 61 -107 131 -121 155 -49
83 -132 289 -193 479 -37 113 -70 198 -83 212 -12 13 -55 41 -96 63 l-74 40
-128 0 c-121 0 -129 -1 -135 -21z m1005 -1219 c0 -4 -25 -24 -55 -44 l-55 -36
-10 26 c-6 15 -13 31 -16 35 -2 5 19 22 48 39 l53 30 18 -21 c9 -12 17 -25 17
-29z m25 -37 c6 -18 3 -22 -70 -79 -16 -12 -26 -26 -23 -30 4 -3 31 12 60 35
l52 42 18 -23 c18 -23 33 -58 26 -62 -14 -10 -130 -76 -133 -76 -6 0 -55 111
-55 125 0 11 93 81 111 84 4 1 10 -7 14 -16z"/>
<path d="M1963 4885 c-142 -29 -235 -57 -343 -102 -101 -43 -273 -137 -292
-160 -23 -29 58 -8 165 42 126 59 269 116 440 175 76 26 141 51 144 54 15 14
-8 12 -114 -9z"/>
<path d="M2638 4833 c17 -2 47 -2 65 0 17 2 3 4 -33 4 -36 0 -50 -2 -32 -4z"/>
<path d="M2840 4816 c131 -20 234 -42 348 -76 53 -16 98 -27 100 -25 6 6 -157
53 -272 80 -59 13 -144 26 -189 29 l-82 5 95 -13z"/>
<path d="M2320 4799 c-249 -29 -595 -148 -825 -284 -333 -196 -622 -516 -801
-890 -210 -436 -273 -1017 -160 -1480 53 -216 124 -411 221 -601 148 -294 279
-477 448 -625 143 -127 211 -173 290 -198 40 -13 124 -45 188 -72 117 -49 283
-99 329 -99 37 0 13 13 -117 61 -113 41 -201 89 -264 143 l-34 28 46 -25 c76
-43 188 -84 376 -137 350 -98 628 -113 948 -49 100 21 320 87 313 95 -3 2 -37
-7 -77 -21 -246 -83 -539 -112 -811 -80 -319 38 -667 169 -959 363 -150 99
-426 392 -525 556 l-35 59 61 39 c33 21 58 42 55 45 -3 3 -40 -14 -81 -36
l-75 -42 -21 40 c-11 22 -20 47 -20 54 0 13 104 67 129 67 6 0 11 5 11 11 0 8
5 7 15 -1 29 -24 26 -3 -11 81 -89 201 -142 381 -169 564 -8 61 -22 145 -31
189 -18 90 -14 181 17 344 36 188 98 351 201 531 32 57 58 104 56 106 -2 1
-22 12 -45 24 -23 11 -44 25 -48 31 -8 12 57 109 153 228 98 122 234 249 353
328 112 74 310 171 424 207 244 76 660 96 955 46 114 -19 264 -58 256 -66 -2
-3 -42 2 -88 11 -239 43 -545 53 -742 22 -359 -56 -646 -192 -941 -445 -134
-116 -319 -330 -300 -349 4 -4 22 11 42 33 116 132 207 227 283 293 245 214
599 385 905 438 85 15 157 19 320 18 234 0 381 -21 548 -75 95 -31 287 -125
287 -140 0 -5 -12 -28 -26 -50 -14 -23 -23 -43 -20 -47 3 -3 7 -3 9 -1 2 2 15
23 30 47 32 50 25 51 148 -39 162 -120 370 -348 528 -578 108 -156 129 -196
170 -323 101 -316 106 -711 15 -1047 -111 -407 -334 -719 -683 -960 -41 -28
-79 -51 -85 -51 -6 0 -22 16 -35 35 -13 19 -28 35 -33 35 -6 0 1 -15 16 -34
14 -19 26 -39 26 -45 0 -13 -128 -79 -235 -121 -117 -46 -327 -97 -460 -110
-165 -17 -428 -8 -569 20 -136 27 -326 88 -431 139 -44 22 -80 39 -81 38 0 -1
-20 -30 -43 -65 l-42 -63 83 -38 c128 -60 270 -110 413 -147 72 -18 120 -33
109 -34 -41 0 -229 41 -314 70 -89 29 -315 130 -410 182 -37 20 -47 23 -30 9
37 -31 332 -175 433 -211 437 -157 949 -170 1357 -34 349 116 666 342 945 675
185 221 333 505 379 731 23 110 18 117 -9 15 -31 -111 -102 -281 -132 -318
-15 -17 -30 -26 -39 -22 -9 3 -29 -4 -45 -16 -16 -12 -29 -20 -29 -17 0 2 23
63 50 135 28 73 70 213 95 313 41 168 56 210 70 196 14 -14 -53 -290 -125
-510 -5 -17 -5 -28 1 -28 50 0 135 241 161 458 8 62 17 102 24 102 7 0 13 34
18 92 26 375 -37 673 -219 1024 -177 343 -350 560 -590 739 -246 184 -558 314
-890 371 -140 24 -506 25 -664 1 -63 -10 -116 -15 -118 -13 -6 6 117 33 217
47 47 7 168 12 269 12 228 0 222 17 -9 25 -171 5 -325 -7 -477 -39 -53 -10
-98 -17 -101 -15 -7 8 153 55 249 72 144 27 435 25 602 -5 245 -43 458 -116
624 -216 194 -115 389 -270 567 -450 191 -192 333 -375 414 -530 20 -38 27
-45 30 -30 6 28 -107 245 -183 350 -221 307 -537 579 -849 731 -288 140 -829
238 -1126 203z m210 -239 c0 -79 0 -80 -25 -80 -25 0 -25 1 -25 80 0 79 0 80
25 80 25 0 25 -1 25 -80z m145 65 c96 -7 300 -41 322 -53 12 -7 5 -15 -33 -37
-54 -30 -79 -32 -219 -16 -136 16 -153 15 -157 -11 -2 -13 -11 -24 -20 -26
-16 -3 -18 6 -18 77 0 79 1 81 23 77 12 -3 58 -8 102 -11z m-215 -9 c0 -7 -3
-34 -6 -60 l-7 -46 -56 0 c-131 0 -399 -56 -589 -122 -63 -22 -115 -38 -116
-36 -1 1 -15 24 -29 50 -19 32 -32 45 -42 42 -18 -7 -18 -4 0 -79 10 -42 11
-63 3 -72 -16 -19 -33 -16 -52 10 -16 21 -16 21 -6 0 9 -20 2 -26 -92 -84
-259 -160 -445 -355 -596 -624 -55 -98 -126 -254 -119 -261 2 -2 30 43 63 100
l59 103 32 -24 32 -25 -58 -116 c-63 -126 -109 -248 -140 -370 -25 -96 -51
-273 -51 -341 l0 -51 -49 0 c-35 0 -51 -4 -55 -16 -10 -25 -7 -89 4 -100 6 -6
13 -51 16 -100 10 -192 55 -375 139 -558 28 -61 33 -81 24 -92 -6 -8 -17 -14
-25 -14 -7 0 -17 -7 -21 -15 -11 -19 -18 1 -72 195 -74 272 -76 285 -75 585 1
290 12 399 59 607 74 331 210 610 462 945 145 193 407 381 659 472 200 73 704
142 704 97z m1077 -207 c18 -12 33 -23 33 -26 0 -7 -51 -93 -55 -93 -2 0 -16
5 -30 12 -31 14 -55 56 -55 96 0 56 29 59 107 11z m-350 -10 c106 -37 319
-132 388 -172 128 -75 359 -289 464 -432 55 -73 71 -91 45 -48 -40 66 -148
194 -229 271 -71 69 -247 209 -303 241 -16 10 -15 14 9 58 16 28 33 47 43 47
8 -1 52 -28 97 -60 251 -180 460 -417 581 -659 194 -386 255 -670 233 -1079
l-7 -136 -74 0 -74 0 0 35 0 35 66 0 c47 0 63 3 58 12 -4 6 -11 93 -15 192 -9
212 -34 367 -85 526 -38 122 -116 303 -139 326 -7 8 -32 48 -55 89 -23 41 -44
75 -47 75 -2 0 14 -34 36 -75 23 -41 41 -79 41 -84 0 -11 -51 -41 -70 -41 -6
0 -36 39 -67 88 -157 241 -370 468 -563 599 -77 52 -241 139 -335 178 -86 36
-105 45 -92 45 3 0 45 -14 94 -31z m1073 -899 c11 -21 20 -42 20 -44 0 -3 -22
-17 -49 -30 l-48 -25 -18 40 c-10 21 -15 42 -11 46 5 5 74 48 83 52 2 1 12
-17 23 -39z m-3557 -942 c6 -44 3 -48 -48 -48 -39 0 -45 3 -51 25 -10 42 1 55
50 55 42 0 44 -1 49 -32z m33 -189 c24 -186 94 -427 165 -573 16 -34 23 -52
14 -41 -61 75 -167 366 -190 521 -15 98 -20 223 -9 212 3 -3 12 -57 20 -119z
m3424 -744 c54 -28 60 -41 31 -76 l-18 -23 -52 33 c-28 18 -51 36 -51 40 0 9
30 51 36 51 3 0 27 -11 54 -25z m-3349 -87 c68 -122 136 -222 211 -311 l60
-72 -74 75 c-40 41 -91 102 -113 135 -43 65 -150 265 -141 265 2 0 28 -42 57
-92z m3279 3 c0 -4 -22 -40 -50 -79 -60 -85 -216 -246 -285 -292 l-50 -34 49
54 c146 163 178 202 235 278 33 46 61 88 61 93 0 6 8 5 20 -1 11 -6 20 -14 20
-19z m-565 -598 c14 -15 25 -32 25 -38 0 -12 -55 -45 -75 -45 -12 0 -42 67
-33 74 12 9 53 36 55 36 1 0 14 -12 28 -27z m-953 -240 c10 -9 18 -27 18 -40
0 -20 -5 -23 -39 -23 -26 0 -41 5 -45 16 -9 24 -8 31 10 48 20 20 33 20 56 -1z
m-324 -10 c-10 -2 -26 -2 -35 0 -10 3 -2 5 17 5 19 0 27 -2 18 -5z"/>
<path d="M3300 4707 c8 -8 134 -57 137 -53 2 2 -18 12 -44 23 -53 23 -101 38
-93 30z"/>
<path d="M3560 4588 c252 -142 488 -336 652 -536 111 -135 217 -321 278 -490
13 -34 25 -60 27 -58 6 6 -62 175 -103 259 -115 229 -319 462 -566 648 -115
86 -312 208 -363 225 -11 3 23 -18 75 -48z"/>
<path d="M1220 4403 c-115 -87 -317 -294 -417 -429 -135 -182 -214 -328 -289
-533 -195 -532 -201 -1097 -19 -1612 79 -223 258 -546 368 -664 47 -50 47 -50
33 -15 -8 19 -19 49 -26 66 -6 17 -45 84 -86 150 -104 165 -193 352 -253 529
-75 225 -93 334 -98 614 -13 643 109 1068 431 1499 78 105 276 312 386 405 30
25 53 46 50 46 -3 1 -39 -25 -80 -56z"/>
<path d="M2350 4300 c0 -16 5 -30 10 -30 6 0 10 14 10 30 0 17 -4 30 -10 30
-5 0 -10 -13 -10 -30z"/>
<path d="M2450 4306 c0 -24 16 -43 27 -32 8 8 -6 56 -17 56 -6 0 -10 -11 -10
-24z"/>
<path d="M2530 4301 c0 -28 15 -49 27 -38 8 8 -7 67 -18 67 -5 0 -9 -13 -9
-29z"/>
<path d="M2670 4300 c0 -16 5 -30 10 -30 6 0 10 14 10 30 0 17 -4 30 -10 30
-5 0 -10 -13 -10 -30z"/>
<path d="M829 4283 l-34 -38 38 34 c34 33 42 41 34 41 -2 0 -19 -17 -38 -37z"/>
<path d="M2830 4310 c0 -8 -3 -25 -6 -37 -4 -13 -2 -23 4 -23 13 0 23 53 11
65 -6 5 -9 4 -9 -5z"/>
<path d="M2170 4283 c0 -23 17 -49 26 -41 9 10 -4 58 -16 58 -6 0 -10 -8 -10
-17z"/>
<path d="M2927 4283 c-11 -10 -8 -53 3 -53 6 0 10 14 10 30 0 31 -2 35 -13 23z"/>
<path d="M2075 4253 c8 -32 13 -39 21 -30 10 9 -5 57 -17 57 -7 0 -9 -10 -4
-27z"/>
<path d="M1962 4241 c-10 -6 -11 -13 -1 -34 15 -33 29 -35 29 -4 0 30 -13 48
-28 38z"/>
<path d="M3049 4223 c-7 -18 -6 -30 1 -37 5 -5 10 -8 10 -5 0 2 4 19 9 37 12
39 -5 44 -20 5z"/>
<path d="M742 4182 c-74 -85 -204 -270 -260 -370 -53 -93 -114 -223 -109 -228
2 -2 17 24 33 59 81 173 184 337 311 495 45 56 81 102 79 102 -2 0 -26 -26
-54 -58z"/>
<path d="M2449 3970 c-1 -132 -2 -246 -3 -252 -1 -8 15 -14 42 -16 l42 -3 0
-45 c0 -32 -4 -44 -15 -44 -12 0 -15 -13 -15 -55 0 -51 -2 -55 -24 -55 -28 0
-36 16 -36 71 0 21 -4 39 -10 39 -6 0 -10 -26 -10 -59 0 -68 16 -91 53 -74 17
8 28 7 40 -2 14 -10 17 -29 17 -99 0 -52 -4 -86 -10 -86 -22 0 -33 -47 -20
-80 7 -16 16 -30 21 -30 10 0 12 -139 3 -256 l-7 -81 -33 -11 -34 -10 -61 98
c-33 55 -69 102 -80 105 -10 4 -28 0 -40 -9 -21 -14 -25 -8 -187 261 -174 290
-180 304 -120 311 21 3 36 -11 94 -89 38 -51 114 -158 169 -238 55 -80 104
-144 109 -143 5 2 13 -2 17 -10 5 -7 9 -8 9 -3 0 6 -9 24 -20 40 -27 41 -25
59 10 72 48 18 35 73 -17 73 -18 0 -23 -6 -24 -27 0 -16 -4 -37 -8 -48 -8 -19
-8 -19 -20 4 -7 13 -11 34 -8 48 4 20 1 24 -14 20 -14 -4 -33 17 -83 92 -143
213 -170 246 -202 249 -39 4 -84 -31 -84 -64 0 -15 54 -113 126 -232 139 -226
228 -387 222 -401 -1 -4 -37 17 -79 48 -241 180 -297 219 -324 233 -39 19
-124 42 -131 35 -18 -17 85 -150 149 -190 28 -19 121 -84 205 -145 84 -61 174
-125 201 -143 l49 -31 -14 -40 c-17 -48 -18 -131 -3 -161 6 -12 27 -36 46 -53
l36 -31 -80 -144 c-44 -79 -115 -211 -158 -294 -109 -211 -224 -416 -299 -535
-36 -55 -82 -135 -103 -176 l-38 -74 29 -23 28 -23 -26 -31 c-15 -18 -22 -34
-17 -38 6 -3 25 23 42 57 17 35 65 120 105 190 41 69 74 132 74 139 0 6 -6 17
-14 23 -12 9 7 42 109 191 68 99 192 284 276 412 145 219 154 231 176 222 38
-14 150 -11 190 6 19 8 41 15 47 15 6 0 24 -22 39 -50 27 -48 27 -50 12 -81
-9 -17 -14 -41 -11 -54 6 -25 175 -286 209 -322 27 -30 62 -29 92 2 40 39 32
68 -54 205 -121 192 -128 200 -162 207 -20 4 -34 14 -40 31 -5 13 -18 37 -29
52 l-20 28 24 19 c34 27 74 89 86 133 9 34 21 44 123 106 395 239 695 430 717
454 14 15 70 54 125 86 55 32 115 73 133 93 33 35 33 36 18 68 -15 32 -15 33
14 48 17 9 30 20 30 25 0 14 -13 12 -36 -5 -28 -21 -38 -19 -58 16 -16 28 -19
29 -39 16 -36 -23 -446 -246 -708 -385 -259 -137 -360 -196 -420 -243 -44 -34
-44 -34 -94 -9 -22 11 -48 20 -60 20 -47 1 -47 4 -45 231 3 257 -7 426 -26
433 -9 4 -14 23 -14 56 0 44 3 51 18 48 14 -3 18 -16 20 -66 2 -48 6 -62 18
-62 13 0 14 9 8 56 -6 51 -5 56 15 61 30 8 20 29 -13 25 -25 -3 -26 -1 -26 43
0 43 1 45 30 45 l30 0 0 255 0 255 -85 0 -85 0 -1 -240z m101 3 c-1 -221 -5
-243 -49 -243 -21 0 -21 2 -21 225 l0 225 35 0 35 0 0 -207z m37 -125 c-1 -62
-3 -12 -3 112 0 124 2 174 3 113 2 -62 2 -164 0 -225z m1287 -464 c4 -9 5 -18
4 -19 -2 -1 -40 -24 -86 -50 -113 -65 -114 -76 -3 -20 l91 45 12 -25 c6 -14 9
-27 7 -28 -8 -7 -189 -107 -193 -107 -2 0 -6 14 -10 32 -3 17 -14 40 -23 50
-9 10 -14 20 -12 22 11 9 195 115 200 116 4 0 10 -7 13 -16z m-1514 -129 c0
-8 -7 -15 -15 -15 -8 0 -15 7 -15 15 0 8 7 15 15 15 8 0 15 -7 15 -15z m183
-2 c-7 -2 -13 -14 -13 -26 0 -17 -2 -19 -9 -8 -12 19 -3 41 18 40 10 0 11 -2
4 -6z m1085 -44 c3 -16 -185 -131 -498 -304 -58 -32 -140 -78 -183 -102 -79
-45 -109 -49 -121 -16 -4 9 -1 22 6 29 7 7 128 74 268 150 140 76 307 166 370
200 115 63 152 73 158 43z m22 -81 c0 -12 -659 -416 -800 -489 -44 -23 -86
-39 -95 -36 -21 9 -20 70 3 89 24 21 47 28 63 18 9 -6 48 9 119 47 117 63 416
235 585 336 102 62 124 68 125 35z m-1696 -35 c189 -138 317 -237 326 -253 26
-49 1 -53 -61 -8 -300 214 -358 261 -348 280 14 25 24 23 83 -19z m471 -401
c-3 -3 -13 -2 -21 3 -19 13 -154 267 -147 278 3 5 43 -55 90 -133 47 -78 82
-144 78 -148z m183 -18 c12 -8 22 -26 22 -40 0 -29 -32 -64 -59 -64 -18 0 -61
43 -61 60 0 16 43 60 59 60 9 0 27 -7 39 -16z m309 -551 c117 -182 116 -182
103 -198 -7 -8 -16 -15 -21 -15 -8 0 -68 88 -153 227 -32 52 -37 65 -26 78 7
8 16 15 20 15 5 0 39 -48 77 -107z"/>
<path d="M1845 4170 c9 -16 20 -30 26 -30 5 0 3 14 -6 30 -9 17 -20 30 -26 30
-5 0 -3 -13 6 -30z"/>
<path d="M3156 4184 c-9 -22 3 -32 14 -14 12 19 12 30 1 30 -5 0 -12 -7 -15
-16z"/>
<path d="M3231 4146 c-8 -13 -10 -30 -6 -36 6 -9 12 -4 22 15 9 16 11 31 6 36
-6 6 -15 0 -22 -15z"/>
<path d="M1726 4152 c-3 -5 7 -34 22 -65 20 -42 31 -54 40 -48 11 7 9 18 -12
59 -27 53 -41 68 -50 54z"/>
<path d="M1650 4113 c0 -16 61 -113 70 -113 15 0 13 5 -21 65 -27 49 -49 70
-49 48z"/>
<path d="M3414 4051 c-15 -23 -24 -44 -21 -47 3 -3 18 13 33 35 15 23 24 44
21 47 -3 3 -18 -13 -33 -35z"/>
<path d="M1525 4021 c-6 -11 41 -69 49 -60 7 7 -25 69 -36 69 -4 0 -9 -4 -13
-9z"/>
<path d="M3490 3991 c-7 -14 -7 -22 1 -27 14 -8 43 21 35 35 -11 17 -24 13
-36 -8z"/>
<path d="M3218 3953 c-14 -21 -42 -69 -63 -107 l-38 -69 24 -18 c13 -10 26
-19 29 -19 3 0 33 48 68 107 59 100 61 107 46 125 -25 26 -38 23 -66 -19z"/>
<path d="M1848 3964 c-16 -8 -28 -16 -28 -19 0 -2 22 -40 50 -85 27 -45 52
-91 55 -101 6 -17 8 -17 41 -2 19 9 33 19 32 22 -73 150 -101 201 -111 201 -6
-1 -24 -8 -39 -16z"/>
<path d="M1437 3925 c10 -13 24 -27 31 -30 7 -2 4 9 -8 25 -12 17 -26 30 -31
30 -6 0 -2 -11 8 -25z"/>
<path d="M1790 3913 c0 -23 62 -182 76 -194 20 -16 18 -9 -16 79 -33 84 -59
134 -60 115z"/>
<path d="M3615 3890 c-22 -22 -26 -33 -18 -41 9 -9 18 -4 37 17 27 31 31 40
18 48 -5 3 -22 -8 -37 -24z"/>
<path d="M1340 3864 c0 -17 37 -60 45 -53 3 4 -5 20 -19 35 -14 16 -26 24 -26
18z"/>
<path d="M1290 3834 c0 -6 14 -23 30 -39 17 -16 30 -24 30 -19 0 6 -13 23 -30
39 -16 16 -30 24 -30 19z"/>
<path d="M1215 3759 c-4 -6 -5 -11 -4 -12 2 -1 19 -10 38 -20 43 -23 50 -15
18 17 -28 28 -42 32 -52 15z"/>
<path d="M3741 3748 c-11 -11 -17 -26 -14 -31 6 -10 43 27 43 44 0 14 -8 11
-29 -13z"/>
<path d="M1145 3610 c16 -16 33 -30 39 -30 5 0 -3 14 -19 30 -16 17 -33 30
-39 30 -5 0 3 -13 19 -30z"/>
<path d="M3840 3615 c-17 -18 -19 -25 -9 -25 18 0 59 28 59 41 0 17 -26 9 -50
-16z"/>
<path d="M2646 3599 c-22 -17 -26 -28 -24 -57 4 -46 45 -80 77 -63 33 18 27
42 -9 35 -34 -7 -46 10 -36 52 6 22 11 25 36 22 32 -5 37 1 18 20 -17 17 -32
15 -62 -9z"/>
<path d="M2176 3583 c23 -92 30 -108 52 -111 19 -3 22 1 22 35 l0 38 17 -33
c19 -39 37 -49 57 -33 10 8 21 8 40 1 34 -12 41 3 32 66 -7 55 -12 64 -35 64
-12 0 -23 -18 -39 -62 l-21 -63 5 63 c7 70 -8 85 -24 25 l-10 -38 -1 32 c-1
17 -6 35 -13 39 -18 11 -39 -27 -33 -61 l6 -30 -16 34 c-8 18 -15 40 -15 47 0
8 -7 14 -15 14 -12 0 -14 -7 -9 -27z m198 -45 c5 -24 3 -28 -14 -28 -23 0 -23
0 -10 36 12 31 15 30 24 -8z"/>
<path d="M2730 3540 c0 -56 3 -70 15 -70 11 0 15 11 15 40 0 31 3 38 15 34 9
-4 15 -19 15 -40 0 -19 5 -34 10 -34 6 0 10 16 10 35 0 28 4 35 20 35 16 0 20
-7 20 -35 0 -19 5 -35 10 -35 6 0 10 30 10 70 0 40 -4 70 -10 70 -5 0 -10 -9
-10 -20 0 -13 -7 -20 -20 -20 -13 0 -20 7 -20 20 0 11 -6 20 -14 20 -9 0 -12
-8 -8 -25 3 -18 0 -25 -12 -25 -10 0 -16 9 -16 25 0 16 -6 25 -15 25 -12 0
-15 -14 -15 -70z"/>
<path d="M341 3514 c-12 -31 -20 -58 -18 -61 2 -2 14 22 25 54 12 31 20 59 18
61 -2 2 -14 -22 -25 -54z"/>
<path d="M1090 3545 c14 -15 34 -32 45 -37 16 -9 16 -6 -5 17 -14 15 -34 32
-45 37 -16 9 -16 6 5 -17z"/>
<path d="M3911 3541 c-13 -10 -21 -23 -17 -29 9 -15 65 18 59 35 -7 17 -13 16
-42 -6z"/>
<path d="M1040 3490 c0 -6 7 -10 15 -10 8 0 15 2 15 4 0 2 -7 6 -15 10 -8 3
-15 1 -15 -4z"/>
<path d="M1202 3440 c-18 -28 -32 -55 -32 -59 0 -7 303 -209 321 -214 11 -3
80 96 71 104 -13 12 -307 211 -318 216 -6 2 -25 -19 -42 -47z m193 -97 c63
-42 115 -81 115 -87 0 -6 -6 -19 -14 -28 -11 -16 -23 -10 -127 59 -142 94
-136 88 -114 113 10 11 20 20 22 20 2 0 55 -34 118 -77z"/>
<path d="M4521 3485 c0 -5 22 -77 49 -160 27 -82 49 -143 49 -135 0 18 -97
310 -98 295z"/>
<path d="M1020 3451 c0 -9 30 -24 36 -18 2 1 -6 8 -16 15 -11 7 -20 8 -20 3z"/>
<path d="M301 3409 c-6 -18 -11 -37 -10 -43 0 -6 7 7 15 28 8 22 12 41 10 43
-2 2 -9 -10 -15 -28z"/>
<path d="M980 3380 c0 -11 33 -30 52 -30 7 0 2 9 -12 20 -28 22 -40 25 -40 10z"/>
<path d="M4045 3370 c-21 -23 -8 -27 20 -7 11 8 14 16 8 20 -6 4 -18 -2 -28
-13z"/>
<path d="M257 3248 c-67 -271 -91 -483 -84 -738 14 -478 148 -883 440 -1320
102 -153 343 -467 416 -544 121 -126 331 -273 484 -338 71 -30 366 -118 395
-118 9 0 -30 16 -88 36 -283 95 -612 306 -850 544 -149 149 -225 242 -336 410
-301 456 -444 914 -444 1418 0 235 25 442 81 666 11 43 18 80 16 83 -2 2 -16
-43 -30 -99z"/>
<path d="M930 3306 c0 -15 29 -36 49 -36 20 0 11 16 -19 33 -26 16 -30 16 -30
3z"/>
<path d="M4073 3302 c-37 -17 -43 -32 -14 -32 23 0 68 35 55 42 -5 3 -24 -1
-41 -10z"/>
<path d="M2390 3240 c0 -33 4 -60 10 -60 6 0 10 7 10 15 0 8 4 15 9 15 5 0 16
3 25 6 12 4 16 0 16 -15 0 -12 5 -21 10 -21 6 0 10 25 10 55 0 56 -16 77 -22
28 -4 -41 -38 -44 -38 -5 0 17 -6 32 -15 36 -12 4 -15 -5 -15 -54z"/>
<path d="M2580 3290 c0 -5 5 -10 10 -10 6 0 10 -22 10 -50 0 -38 4 -50 15 -50
11 0 15 11 15 38 0 20 3 47 6 60 6 19 3 22 -25 22 -17 0 -31 -4 -31 -10z"/>
<path d="M2669 3279 c-15 -15 -19 -28 -14 -47 10 -42 25 -53 63 -50 49 4 53
26 5 24 -37 -1 -38 0 -38 34 0 34 1 35 39 33 33 -2 36 -1 26 12 -18 21 -57 18
-81 -6z"/>
<path d="M2783 3264 c4 -22 7 -49 7 -61 0 -13 5 -23 10 -23 6 0 10 14 10 30 0
20 5 30 15 30 10 0 15 -10 15 -30 0 -21 5 -30 16 -30 14 0 15 7 10 38 -3 20
-6 47 -6 60 0 13 -4 20 -10 17 -5 -3 -10 -15 -10 -26 0 -26 -28 -24 -32 3 -2
12 -9 24 -17 26 -11 4 -13 -3 -8 -34z"/>
<path d="M4108 3209 c-16 -9 -26 -39 -13 -39 17 0 65 32 60 40 -8 13 -25 12
-47 -1z"/>
<path d="M880 3192 c0 -12 51 -34 59 -27 7 8 -28 35 -46 35 -7 0 -13 -4 -13
-8z"/>
<path d="M4621 3154 c0 -11 3 -14 6 -6 3 7 2 16 -1 19 -3 4 -6 -2 -5 -13z"/>
<path d="M4632 3115 c0 -11 4 -31 8 -45 6 -20 8 -21 8 -5 0 11 -4 31 -8 45 -6
20 -8 21 -8 5z"/>
<path d="M850 3102 c0 -8 43 -32 55 -32 3 0 5 6 5 14 0 7 -10 16 -22 20 -31 8
-38 7 -38 -2z"/>
<path d="M4153 3083 c-12 -4 -19 -33 -9 -33 16 0 56 21 56 30 0 10 -25 12 -47
3z"/>
<path d="M4652 3015 c0 -16 2 -22 5 -12 2 9 2 23 0 30 -3 6 -5 -1 -5 -18z"/>
<path d="M820 2986 c0 -15 21 -26 51 -26 30 0 22 17 -12 29 -40 14 -39 14 -39
-3z"/>
<path d="M4662 2955 c0 -16 2 -22 5 -12 2 9 2 23 0 30 -3 6 -5 -1 -5 -18z"/>
<path d="M4203 2913 c-31 -6 -29 -23 2 -23 16 0 25 6 25 15 0 8 -1 14 -2 14
-2 -1 -13 -4 -25 -6z"/>
<path d="M4672 2890 c0 -19 2 -27 5 -17 2 9 2 25 0 35 -3 9 -5 1 -5 -18z"/>
<path d="M800 2886 c0 -8 13 -16 30 -18 32 -5 43 15 14 26 -26 10 -44 7 -44
-8z"/>
<path d="M4682 2805 c0 -16 2 -22 5 -12 2 9 2 23 0 30 -3 6 -5 -1 -5 -18z"/>
<path d="M4218 2793 c-37 -6 -36 -23 2 -23 20 0 30 5 30 15 0 8 -1 14 -2 14
-2 -1 -15 -4 -30 -6z"/>
<path d="M770 2690 c0 -5 14 -10 30 -10 17 0 30 5 30 10 0 6 -13 10 -30 10
-16 0 -30 -4 -30 -10z"/>
<path d="M870 2579 l0 -79 220 0 220 0 0 49 c0 27 -3 63 -6 80 l-7 31 -213 0
-214 -1 0 -80z m400 6 l0 -35 -185 0 -185 0 0 35 0 35 185 0 185 0 0 -35z"/>
<path d="M4190 2640 c0 -5 17 -10 38 -10 27 0 33 3 22 10 -20 13 -60 13 -60 0z"/>
<path d="M3698 2528 c-2 -40 -2 -76 0 -80 2 -5 102 -8 223 -8 l219 0 0 80 0
80 -219 0 -219 0 -4 -72z m410 -5 l-3 -38 -187 -3 -188 -2 0 40 0 40 191 0
190 0 -3 -37z"/>
<path d="M4747 2403 c-20 -203 -53 -378 -96 -506 -45 -136 -242 -464 -392
-653 -80 -100 -272 -297 -369 -379 -196 -163 -460 -302 -697 -366 -84 -23 -98
-31 -98 -56 0 -11 -16 -21 -50 -30 -106 -27 -244 -54 -325 -62 -47 -4 -67 -9
-45 -10 22 0 97 6 165 14 320 39 458 78 705 199 236 116 370 212 541 388 452
465 663 919 681 1471 3 92 4 167 2 167 -2 0 -12 -80 -22 -177z"/>
<path d="M800 2510 c0 -5 5 -10 10 -10 6 0 10 5 10 10 0 6 -4 10 -10 10 -5 0
-10 -4 -10 -10z"/>
<path d="M800 2431 c0 -15 15 -21 38 -14 32 8 27 23 -8 23 -16 0 -30 -4 -30
-9z"/>
<path d="M4182 2418 c3 -7 19 -14 37 -16 24 -3 32 0 29 10 -3 7 -19 14 -37 16
-24 3 -32 0 -29 -10z"/>
<path d="M833 2293 c-22 -8 -14 -23 12 -23 16 0 25 6 25 15 0 15 -14 18 -37 8z"/>
<path d="M4180 2277 c0 -20 38 -33 53 -18 13 13 9 18 -26 26 -21 6 -27 4 -27
-8z"/>
<path d="M4551 2254 c0 -11 3 -14 6 -6 3 7 2 16 -1 19 -3 4 -6 -2 -5 -13z"/>
<path d="M4135 2109 c-8 -12 -6 -15 20 -23 11 -3 27 -1 35 4 13 9 13 11 0 20
-20 13 -47 13 -55 -1z"/>
<path d="M883 2093 c-7 -2 -13 -9 -13 -15 0 -14 43 -6 48 10 4 12 -12 15 -35
5z"/>
<path d="M4080 1966 c0 -9 11 -18 25 -22 48 -12 45 16 -2 31 -17 5 -23 2 -23
-9z"/>
<path d="M934 1956 c-24 -18 -13 -30 20 -22 17 4 23 11 20 21 -8 19 -15 19
-40 1z"/>
<path d="M3608 1953 c-8 -10 -25 -35 -37 -55 l-22 -38 143 -94 c121 -80 145
-93 153 -79 6 8 18 25 28 37 16 17 15 15 -2 -17 -12 -21 -21 -40 -21 -42 0 -7
110 -78 114 -74 18 22 56 86 56 94 0 5 -24 27 -54 47 -41 29 -56 34 -65 25
-10 -9 -11 -8 -6 5 5 12 -10 27 -57 59 -35 23 -96 66 -135 96 -40 29 -74 53
-76 53 -2 0 -11 -8 -19 -17z m224 -191 c-14 -4 -194 118 -200 137 -2 7 44 -20
104 -60 60 -40 103 -74 96 -77z"/>
<path d="M1403 1891 c-24 -16 -85 -56 -138 -90 -52 -35 -95 -67 -95 -73 0 -22
55 -98 68 -93 11 4 270 171 281 181 5 5 -60 104 -68 103 -3 0 -25 -13 -48 -28z
m25 -51 c-5 -16 -192 -139 -202 -133 -11 7 19 31 119 93 85 53 88 55 83 40z"/>
<path d="M4030 1839 c0 -10 40 -32 47 -25 3 2 2 9 -1 14 -8 13 -46 22 -46 11z"/>
<path d="M988 1829 c-19 -10 -24 -29 -9 -29 5 0 19 9 32 20 26 21 9 28 -23 9z"/>
<path d="M2252 1749 c3 -8 15 -44 27 -81 13 -38 28 -68 35 -68 19 0 56 44 56
66 -1 16 -3 15 -15 -6 -9 -16 -14 -19 -15 -9 0 8 6 23 13 33 13 17 14 17 24
-10 6 -16 14 -37 17 -46 9 -31 23 -20 31 25 17 101 17 107 6 107 -6 0 -11 -12
-12 -27 0 -16 -4 -37 -8 -48 -8 -19 -8 -19 -19 2 -7 12 -12 33 -12 47 0 34
-23 33 -37 -1 l-11 -28 -1 28 c-1 16 -7 27 -15 27 -11 0 -12 -8 -5 -37 5 -21
8 -51 8 -68 0 -24 -5 -17 -23 34 -12 36 -28 67 -36 69 -8 3 -11 -1 -8 -9z"/>
<path d="M2478 1680 c4 -95 22 -108 22 -16 0 35 3 71 6 80 4 11 0 16 -12 16
-17 0 -19 -7 -16 -80z"/>
<path d="M2537 1728 c-2 -18 -1 -34 4 -36 5 -2 9 -16 9 -31 0 -29 24 -70 35
-59 4 3 2 15 -4 26 -14 26 -14 62 -1 62 18 0 10 18 -10 23 -26 7 -26 27 1 27
11 0 17 5 14 10 -3 6 -14 10 -24 10 -13 0 -20 -9 -24 -32z"/>
<path d="M2637 1743 c-43 -49 -25 -143 28 -143 31 0 33 17 3 22 -29 4 -37 29
-7 26 12 -2 24 3 26 10 3 7 -5 12 -21 12 -34 0 -37 37 -3 42 29 4 38 48 9 48
-10 0 -26 -8 -35 -17z m38 -3 c3 -5 -1 -10 -10 -10 -9 0 -13 5 -10 10 3 6 8
10 10 10 2 0 7 -4 10 -10z"/>
<path d="M2712 1681 c3 -73 19 -102 26 -45 l4 27 19 -32 c16 -27 39 -42 39
-26 0 9 -44 70 -52 73 -16 7 -7 22 13 22 12 0 17 4 14 11 -4 6 -13 8 -21 5 -8
-3 -14 1 -14 9 0 8 7 15 15 15 8 0 15 4 15 9 0 5 -14 9 -30 9 l-31 -1 3 -76z"/>
<path d="M1025 1714 c-22 -13 -44 -25 -50 -27 -26 -9 128 -209 257 -333 114
-110 278 -239 278 -220 0 3 -44 41 -97 84 -115 93 -232 208 -315 309 l-59 73
45 27 c25 15 46 32 46 37 0 17 -42 76 -53 75 -7 0 -30 -12 -52 -25z"/>
<path d="M1743 1488 c-99 -177 -107 -193 -89 -179 19 16 119 181 135 224 20
52 -6 26 -46 -45z"/>
<path d="M2447 1463 c-8 -78 -9 -476 -1 -497 5 -13 20 -16 75 -16 l69 0 0 285
0 285 -69 0 -68 0 -6 -57z m110 -50 c-4 -38 -7 -150 -7 -250 l0 -183 -35 0
-35 0 0 250 0 250 41 0 42 0 -6 -67z"/>
<path d="M3158 1487 c-21 -12 -38 -25 -38 -29 0 -14 148 -272 158 -276 6 -2
29 9 52 23 39 25 41 27 27 48 -8 13 -38 65 -67 117 -62 112 -80 140 -89 140
-3 -1 -23 -11 -43 -23z m82 -108 c17 -33 29 -66 27 -72 -4 -12 -67 104 -67
123 0 21 11 8 40 -51z"/>
<path d="M233 1470 c16 -43 120 -276 152 -341 21 -41 83 -155 138 -254 55 -99
120 -222 144 -273 48 -100 124 -324 168 -494 l28 -108 38 0 c30 0 36 3 33 18
-56 262 -147 525 -245 712 l-50 95 138 -136 c189 -185 274 -252 288 -229 10
16 -5 34 -100 115 -124 107 -315 302 -406 415 -84 104 -187 255 -275 401 -31
52 -54 87 -51 79z"/>
<path d="M4554 1338 c-32 -51 -79 -124 -106 -162 -26 -38 -48 -75 -48 -82 0
-8 24 -32 53 -55 28 -23 56 -47 60 -55 5 -10 -12 -37 -54 -86 -152 -176 -255
-401 -365 -798 -13 -47 -24 -88 -24 -92 0 -5 20 -8 45 -8 44 0 44 1 55 43 48
183 124 394 195 542 53 111 155 274 193 308 19 18 21 17 58 -2 36 -20 39 -20
57 -3 41 36 60 72 47 87 -10 12 3 36 64 125 42 61 76 115 76 119 0 5 -6 11
-12 13 -10 4 -10 10 -1 30 10 22 9 29 -5 41 -27 24 -204 127 -217 127 -7 0
-39 -42 -71 -92z m164 -83 c62 -40 72 -59 41 -78 -13 -8 -30 -2 -78 29 -65 42
-67 44 -50 75 12 24 9 25 87 -26z m-47 -77 c32 -18 59 -35 59 -38 -1 -3 -7
-14 -16 -25 -14 -19 -15 -19 -58 5 -78 42 -92 56 -77 74 18 22 24 21 92 -16z
m-124 -47 c37 -21 85 -45 105 -52 31 -11 35 -15 27 -31 -14 -26 -30 -23 -122
23 -104 52 -109 56 -96 80 5 10 11 19 13 19 3 0 35 -18 73 -39z m17 -116 c31
-14 63 -25 71 -25 17 0 20 -16 5 -25 -9 -6 -70 24 -125 62 -29 19 -14 16 49
-12z"/>
<path d="M3715 1370 c10 -11 23 -20 28 -20 6 0 2 9 -8 20 -10 11 -23 20 -28
20 -6 0 -2 -9 8 -20z"/>
<path d="M3610 1313 c0 -13 29 -38 35 -31 3 3 -4 13 -15 23 -11 10 -20 13 -20
8z"/>
<path d="M3510 1224 c0 -13 18 -39 24 -34 2 3 -2 14 -10 24 -8 11 -14 16 -14
10z"/>
<path d="M1516 1202 c-7 -12 22 -38 31 -28 4 3 0 14 -9 22 -9 10 -18 12 -22 6z"/>
<path d="M1632 1154 c4 -21 22 -23 26 -1 2 10 -3 17 -13 17 -10 0 -15 -6 -13
-16z"/>
<path d="M3321 1110 c13 -22 26 -40 31 -40 5 0 -1 18 -12 40 -11 22 -25 40
-31 40 -6 0 0 -18 12 -40z"/>
<path d="M3240 1068 c0 -31 17 -45 33 -29 8 8 5 17 -11 33 l-22 22 0 -26z"/>
<path d="M927 1045 c31 -44 208 -214 279 -267 172 -131 401 -254 562 -301 75
-23 56 -5 -36 33 -280 117 -513 268 -729 473 -53 50 -88 79 -76 62z"/>
<path d="M1670 1058 c0 -25 269 -123 449 -164 143 -32 352 -49 461 -36 80 9
81 9 28 11 -51 1 -56 3 -51 21 4 14 0 20 -12 20 -12 0 -16 -6 -12 -20 5 -19 0
-20 -64 -20 -59 0 -69 3 -69 18 -1 16 -2 16 -13 0 -11 -14 -23 -15 -83 -8 -67
9 -155 25 -183 35 -11 4 -11 8 -1 21 10 11 10 18 2 26 -8 8 -13 4 -18 -16 -6
-24 -10 -26 -38 -20 -52 11 -227 71 -314 108 -45 19 -82 30 -82 24z"/>
<path d="M660 1020 c17 -22 34 -40 37 -40 2 0 -10 18 -27 40 -17 22 -34 40
-37 40 -2 0 10 -18 27 -40z"/>
<path d="M1817 1053 c-4 -3 -7 -11 -7 -17 0 -6 5 -5 12 2 6 6 9 14 7 17 -3 3
-9 2 -12 -2z"/>
<path d="M3190 1038 c0 -18 18 -34 28 -24 3 4 -2 14 -11 23 -16 16 -17 16 -17
1z"/>
<path d="M3070 995 c0 -33 2 -35 20 -25 16 9 18 15 10 30 -18 34 -30 32 -30
-5z"/>
<path d="M1943 1005 c-8 -22 6 -33 17 -15 13 20 12 30 0 30 -6 0 -13 -7 -17
-15z"/>
<path d="M720 945 c13 -14 26 -25 28 -25 3 0 -5 11 -18 25 -13 14 -26 25 -28
25 -3 0 5 -11 18 -25z"/>
<path d="M2870 943 c0 -23 16 -48 23 -37 5 10 -9 54 -18 54 -3 0 -5 -8 -5 -17z"/>
<path d="M2980 946 c0 -9 7 -16 16 -16 17 0 14 22 -4 28 -7 2 -12 -3 -12 -12z"/>
<path d="M2283 920 c-6 -15 -7 -26 -1 -29 15 -5 20 5 16 31 l-5 23 -10 -25z"/>
<path d="M2750 911 c0 -11 5 -23 10 -26 6 -3 10 3 10 14 0 11 -4 23 -10 26 -5
3 -10 -3 -10 -14z"/>
<path d="M4257 785 c-184 -193 -322 -305 -526 -427 -36 -22 -58 -37 -49 -34
11 3 22 -2 28 -14 6 -11 18 -20 27 -20 25 0 215 125 323 211 141 113 202 181
252 279 24 47 52 97 62 113 10 15 17 27 15 27 -2 -1 -62 -61 -132 -135z"/>
<path d="M775 880 c10 -11 20 -20 23 -20 3 0 -3 9 -13 20 -10 11 -20 20 -23
20 -3 0 3 -9 13 -20z"/>
<path d="M3733 619 c-29 -17 -53 -33 -53 -36 0 -5 89 44 105 58 16 16 1 9 -52
-22z"/>
<path d="M3539 517 c-223 -109 -406 -168 -631 -204 -90 -14 -173 -18 -403 -18
-281 0 -332 4 -545 40 -14 3 -5 -2 19 -10 89 -29 247 -47 469 -52 337 -8 529
19 805 113 121 42 417 175 417 188 0 7 15 14 -131 -57z"/>
<path d="M3620 305 c-14 -8 -20 -14 -15 -14 6 0 21 6 35 14 14 8 21 14 15 14
-5 0 -21 -6 -35 -14z"/>
<path d="M3560 280 c-8 -5 -10 -10 -5 -10 6 0 17 5 25 10 8 5 11 10 5 10 -5 0
-17 -5 -25 -10z"/>
<path d="M3510 260 c-8 -5 -10 -10 -5 -10 6 0 17 5 25 10 8 5 11 10 5 10 -5 0
-17 -5 -25 -10z"/>
<path d="M1520 210 c8 -5 20 -10 25 -10 6 0 3 5 -5 10 -8 5 -19 10 -25 10 -5
0 -3 -5 5 -10z"/>
<path d="M3420 154 c-102 -36 -255 -85 -340 -109 l-155 -44 100 0 c89 -1 122
5 290 49 105 27 211 56 237 64 25 8 49 12 52 9 3 -4 6 -33 6 -65 l0 -58 60 0
c56 0 60 2 60 23 0 12 3 46 6 74 6 49 5 53 -17 62 -13 5 -34 21 -46 35 -13 14
-33 26 -45 25 -13 0 -106 -30 -208 -65z"/>
<path d="M1560 197 c0 -7 131 -59 136 -54 3 2 -19 13 -48 25 -29 11 -61 23
-70 27 -10 4 -18 5 -18 2z"/>
<path d="M1249 173 c-8 -9 -15 -48 -18 -95 -3 -73 -2 -78 17 -78 17 0 21 7 24
42 3 38 6 43 29 46 14 2 76 -18 138 -43 100 -41 119 -46 178 -43 l67 3 -60 24
c-32 13 -121 55 -198 92 -76 38 -144 69 -151 69 -7 0 -19 -7 -26 -17z"/>
<path d="M1938 183 c7 -3 16 -2 19 1 4 3 -2 6 -13 5 -11 0 -14 -3 -6 -6z"/>
<path d="M1755 120 c27 -12 43 -12 25 0 -8 5 -22 9 -30 9 -10 0 -8 -3 5 -9z"/>
<path d="M1910 47 c16 -17 176 -47 247 -45 45 1 59 3 33 5 -46 3 -214 29 -260
40 -14 3 -23 3 -20 0z"/>
</g>
</svg>